<?xml version="1.0" encoding="utf-8"?>
<!-- Generator: Adobe Illustrator 24.1.2, SVG Export Plug-In . SVG Version: 6.00 Build 0)  -->
<svg version="1.1" id="Layer_2" xmlns="http://www.w3.org/2000/svg" xmlns:xlink="http://www.w3.org/1999/xlink" x="0px" y="0px"
	 viewBox="0 0 1982.56 907.63" style="enable-background:new 0 0 1982.56 907.63;" xml:space="preserve">
<style type="text/css">
	.st0{clip-path:url(#SVGID_2_);}
	.st1{fill:#2899D5;}
	.st2{fill:#FBAD18;}
	.st3{fill:#EE212E;}
	.st4{fill:#142747;}
</style>
<g>
	<defs>
		<path id="SVGID_1_" d="M205.96,788.04c-27.67-40.33-30-82,2.67-138.33c32.67-56.33,140.33-128,140.33-128s61.67-33,61.67-65.67
			c0-0.75-0.03-1.49-0.07-2.23c0.04-0.74,0.07-1.48,0.07-2.23c0-32.67-61.67-65.67-61.67-65.67s-0.08-0.06-0.21-0.14
			c-5.1-3.42-108.26-72.92-140.12-127.86c-32.67-56.33-30.33-98-2.67-138.33s96-65.67,200-59s218.42,38.25,304.21,115.46
			c0,0-73.21-130.13-259.54-166.46s-329.67,37-412.33,112.33c-21.92,19.97-33.17,39.03-36.88,57.2
			c-10.28,50.37,37.44,93.9,76.88,131.14c52.7,49.75,76.13,99.18,75.7,143.56c0.43,44.38-23,93.81-75.7,143.56
			C38.86,634.61-8.86,678.14,1.41,728.5c3.71,18.17,14.96,37.23,36.88,57.21c82.67,75.33,226,148.67,412.33,112.33
			c186.33-36.33,259.54-166.46,259.54-166.46c-85.79,77.21-200.21,108.79-304.21,115.46C301.96,853.71,233.63,828.37,205.96,788.04z
			"/>
	</defs>
	<clipPath id="SVGID_2_">
		<use xlink:href="#SVGID_1_"  style="overflow:visible;"/>
	</clipPath>
	<g class="st0">
		<path class="st1" d="M131.79,284.66l216.95,101.12c-5.1-3.42-108.26-72.92-140.12-127.86c-32.67-56.33-30.33-98-2.67-138.33
			s96-65.67,200-59s218.42,38.25,304.21,115.46c0,0-73.21-130.13-259.54-166.46s-329.67,37-412.33,112.33
			c-21.92,19.97-33.17,39.03-36.88,57.2C3.09,234.52,131.79,284.66,131.79,284.66z"/>
		<path class="st2" d="M205.96,788.04c-27.67-40.33-30-82,2.67-138.33c32.67-56.33,140.33-128,140.33-128L131.79,622.92
			c0,0-128.75,50.16-130.38,105.58c3.71,18.17,14.96,37.23,36.88,57.21c82.67,75.33,226,148.67,412.33,112.33
			c186.33-36.33,259.54-166.46,259.54-166.46c-85.79,77.21-200.21,108.79-304.21,115.46C301.96,853.71,233.63,828.37,205.96,788.04z
			"/>
		<path class="st3" d="M131.79,622.92l217.17-101.22c0,0,61.67-33,61.67-65.67c0-0.75-0.03-1.49-0.07-2.23
			c0.04-0.74,0.07-1.48,0.07-2.23c0-32.67-61.67-65.67-61.67-65.67s-0.08-0.06-0.21-0.14L131.79,284.66
			c0,0-128.7-50.14-130.38-105.54c-10.28,50.37,37.44,93.9,76.88,131.14c52.7,49.75,76.13,99.18,75.7,143.56
			c0.43,44.38-23,93.81-75.7,143.56C38.86,634.61-8.86,678.14,1.41,728.5C3.04,673.09,131.79,622.92,131.79,622.92z"/>
	</g>
</g>
<g>
	<path class="st4" d="M532.57,475.74c0,5.18,2.59,9.06,7.77,11.65c5.17,2.59,11.73,3.93,19.67,4.01c7.93,0.09,15.7-0.25,23.3-1
		c7.6-0.75,14.78-1.63,21.54-2.63c6.76-1,10.65-1.5,11.65-1.5c0.67,14.53-2.21,24.8-8.64,30.81c-6.43,6.01-19.33,9.02-38.71,9.02
		c-26.72,0-46.35-5.43-58.87-16.28c-12.53-10.85-18.79-29.64-18.79-56.37c0-13.36,1.71-24.68,5.13-33.95
		c3.42-9.27,8.43-16.32,15.03-21.17c6.6-4.84,13.94-8.27,22.05-10.27c8.1-2,17.58-3.01,28.43-3.01c20.71,0,35.95,4.38,45.72,13.15
		c9.77,8.77,14.66,22.76,14.66,41.96c0,7.35-1.42,13.24-4.26,17.66c-2.84,4.43-6.56,7.39-11.15,8.89c-4.6,1.5-10.11,2.59-16.53,3.26
		c-6.43,0.67-12.78,0.88-19.04,0.63c-6.26-0.25-13.03,0.04-20.29,0.88C543.97,472.32,537.74,473.73,532.57,475.74z M531.32,449.43
		c2.84-2,7.47-3.34,13.9-4.01c6.43-0.67,12.44-1.04,18.04-1.13c5.59-0.08,10.56-1.25,14.91-3.51c4.34-2.25,6.43-5.8,6.26-10.65
		c0-4.34-3.42-7.93-10.27-10.77c-9.52-4.01-18.79-4.34-27.81-1C533.82,422.88,528.81,433.23,531.32,449.43z"/>
	<path class="st4" d="M783.84,432.65v91.19c-5.85,0.33-10.86,0.29-15.03-0.13c-4.18-0.42-8.14-1.38-11.9-2.88
		c-3.76-1.5-6.51-3.97-8.27-7.39c-1.75-3.42-2.55-7.72-2.38-12.9v-54.11v-0.5V433.4c-2.5-12.19-13.87-17.04-34.07-14.53
		c-10.52,1.34-16.62,2.34-18.29,3.01c0.5,2.84,0.75,6.18,0.75,10.02v68.64c0.16,5.18-0.67,9.48-2.5,12.9
		c-1.84,3.42-4.6,5.89-8.27,7.39c-3.68,1.5-7.6,2.47-11.77,2.88c-4.18,0.42-9.19,0.46-15.03,0.13v-122
		c0-10.85,17.45-16.7,52.36-17.54C758.87,382.96,783.67,399.08,783.84,432.65z"/>
	<path class="st4" d="M914.86,330.68c2.51,1.84,5.64,3.01,9.39,3.51c3.76,0.5,7.18,0.75,10.27,0.75c3.09,0,6.05,0.46,8.89,1.38
		c2.84,0.92,5.05,3.13,6.64,6.64c1.59,3.51,2.38,8.6,2.38,15.28v147.81c-0.17,0.17-0.96,1.13-2.38,2.88
		c-1.42,1.75-2.72,3.17-3.88,4.26c-1.17,1.09-3.34,2.5-6.51,4.26c-3.17,1.75-6.68,3.13-10.52,4.13c-3.84,1-9.02,1.92-15.53,2.76
		c-6.51,0.83-13.87,1.25-22.05,1.25c-25.72,0-44.18-5.55-55.37-16.66c-11.19-11.1-16.78-29.6-16.78-55.49
		c0-10.02,1.33-19,4.01-26.93c2.67-7.93,6.22-14.41,10.65-19.42c4.42-5.01,9.64-9.18,15.66-12.53c6.01-3.34,12.11-5.68,18.29-7.01
		c6.18-1.33,12.61-2,19.29-2c12.86,0,22.05,2,27.56,6.01V330.68z M914.86,455.95v-35.57c-2.17-0.67-4.55-1.25-7.14-1.75
		c-2.59-0.5-5.8-0.88-9.65-1.13c-3.84-0.25-7.48-0.21-10.9,0.13c-3.42,0.34-6.98,1.34-10.65,3.01c-3.67,1.67-6.85,3.88-9.52,6.64
		c-2.67,2.76-4.85,6.6-6.51,11.52c-1.67,4.93-2.5,10.73-2.5,17.41c0,6.35,1,11.86,3.01,16.53c2,4.68,4.47,8.27,7.39,10.77
		c2.92,2.51,6.51,4.38,10.77,5.64s8.1,2,11.52,2.25c3.42,0.25,7.14,0.17,11.15-0.25c4.01-0.41,6.8-0.79,8.39-1.13
		c1.59-0.33,3.05-0.67,4.38-1h0.25C915.02,489.01,915.02,477.99,914.86,455.95z"/>
	<path class="st4" d="M988.01,454.44c-0.17-1-0.29-2.34-0.38-4.01c-0.09-1.67,0.17-4.92,0.75-9.77c0.58-4.84,1.54-9.48,2.88-13.9
		c1.33-4.42,3.67-9.31,7.01-14.66c3.34-5.34,7.47-9.93,12.4-13.78c4.92-3.84,11.56-7.05,19.92-9.65c8.35-2.59,17.87-3.88,28.56-3.88
		c7.52,0,14.44,0.59,20.79,1.75c6.35,1.17,11.81,2.76,16.41,4.76c4.59,2,8.68,4.51,12.28,7.52c3.59,3.01,6.55,5.97,8.89,8.89
		c2.34,2.92,4.3,6.39,5.89,10.4c1.58,4.01,2.79,7.48,3.63,10.4c0.83,2.92,1.42,6.35,1.75,10.27c0.33,3.93,0.54,6.89,0.63,8.89
		c0.08,2,0.08,4.55,0,7.64c-0.09,3.09-0.13,4.8-0.13,5.14c0,2.67-0.09,5.1-0.25,7.27c-0.17,2.17-0.67,5.6-1.5,10.27
		c-0.84,4.68-2,8.85-3.51,12.53c-1.5,3.68-3.88,7.68-7.14,12.02c-3.26,4.35-7.1,7.98-11.52,10.9c-4.43,2.92-10.19,5.39-17.29,7.39
		c-7.1,2-15.08,3.01-23.92,3.01c-9.19,0-17.37-0.58-24.55-1.75c-7.18-1.17-13.28-2.71-18.29-4.63c-5.01-1.92-9.39-4.55-13.15-7.89
		c-3.76-3.34-6.81-6.76-9.14-10.27c-2.34-3.51-4.26-7.85-5.76-13.03c-1.5-5.17-2.63-10.15-3.38-14.91S988.51,460.96,988.01,454.44z
		 M1025.33,456.7c0.5,5.85,1.21,10.48,2.13,13.9c0.92,3.42,2.59,6.81,5.01,10.15c2.42,3.34,6.05,5.76,10.9,7.27
		c4.84,1.5,11.02,2.25,18.54,2.25c5.84,0,10.85-0.92,15.03-2.76c4.17-1.84,7.26-3.92,9.27-6.26c2-2.34,3.59-5.17,4.76-8.52
		c1.17-3.34,1.84-5.84,2-7.52c0.16-1.67,0.25-3.51,0.25-5.51c0-0.16,0-1.04,0-2.63c0-1.59,0-2.92,0-4.01c0-1.08-0.09-2.71-0.25-4.89
		c-0.17-2.17-0.46-4.05-0.88-5.64c-0.42-1.59-1-3.46-1.75-5.64c-0.75-2.17-1.67-4.05-2.75-5.64c-1.09-1.59-2.51-3.21-4.26-4.89
		c-1.75-1.67-3.72-3.05-5.89-4.13c-2.17-1.08-4.8-1.96-7.89-2.63c-3.09-0.67-6.47-1-10.15-1c-6.68,0-12.36,0.92-17.04,2.76
		c-4.68,1.84-8.1,3.97-10.27,6.39c-2.17,2.42-3.84,5.6-5.01,9.52c-1.17,3.93-1.8,6.98-1.88,9.14c-0.09,2.17-0.04,4.93,0.13,8.27
		C1025.33,455.7,1025.33,456.36,1025.33,456.7z"/>
	<path class="st4" d="M1256.82,384.8c-0.17,0.34-0.13,2.09,0.13,5.26c0.25,3.17,0.21,6.22-0.13,9.14c-0.34,2.92-1,6.06-2,9.39
		c-1,3.34-3.05,6.01-6.14,8.02c-3.09,2-7.06,3.01-11.9,3.01c-7.01,0-12.44,0.25-16.28,0.75c-3.84,0.5-7.27,1.75-10.27,3.76
		c-3.01,2-5.01,4.85-6.01,8.52c-1,3.68-1.5,8.69-1.5,15.03v80.17c-3.01-2.17-6.98-3.88-11.9-5.14c-4.93-1.25-9.1-2.21-12.53-2.88
		c-3.43-0.67-6.47-2.63-9.14-5.89c-2.67-3.26-4.01-7.97-4.01-14.15v-67.14c0-1,0.04-2.38,0.13-4.13c0.08-1.75,0.38-4.17,0.88-7.27
		c0.5-3.09,1.33-6.18,2.5-9.27c1.17-3.09,2.92-6.3,5.26-9.65c2.34-3.34,5.17-6.26,8.52-8.77c3.34-2.51,7.64-4.59,12.9-6.26
		c5.26-1.67,11.15-2.5,17.66-2.5c11.19,0,19.45,0,24.8,0c5.34,0,8.27,0,8.77,0s1.46,0,2.88,0
		C1250.84,384.8,1253.31,384.8,1256.82,384.8z"/>
	<path class="st4" d="M1324.96,579.2c-3.01-2.17-6.98-3.47-11.9-3.88c-4.93-0.42-9.1-0.63-12.53-0.63c-3.43,0-6.47-1.8-9.14-5.39
		c-2.67-3.59-4.01-9.48-4.01-17.66V403.84c0.16-0.16,0.96-1.13,2.38-2.88c1.42-1.75,2.71-3.13,3.88-4.13c1.17-1,3.34-2.42,6.51-4.26
		c3.17-1.84,6.68-3.26,10.52-4.26c3.84-1,9.02-1.92,15.53-2.76c6.51-0.83,13.86-1.25,22.05-1.25c25.72,0,44.17,5.55,55.37,16.66
		c11.19,11.11,16.79,29.6,16.79,55.49c0,12.53-2,23.38-6.01,32.57c-4.01,9.19-9.39,16.25-16.16,21.17
		c-6.76,4.93-13.95,8.52-21.54,10.77c-7.6,2.25-15.66,3.38-24.17,3.38c-11.52,0-20.71-1.17-27.56-3.51V579.2z M1324.96,453.94v35.57
		c2.67,0.84,5.55,1.5,8.64,2c3.09,0.5,6.97,0.92,11.65,1.25c4.67,0.34,9.02-0.16,13.03-1.5c4.01-1.33,7.85-3.26,11.52-5.76
		c3.67-2.5,6.6-6.51,8.77-12.02c2.17-5.51,3.26-12.11,3.26-19.79c0-6.35-1.04-11.86-3.13-16.53c-2.09-4.67-4.51-8.27-7.27-10.77
		s-6.39-4.38-10.9-5.64c-4.51-1.25-8.27-2-11.27-2.25c-3.01-0.25-6.76-0.13-11.27,0.38c-4.51,0.5-7.27,0.84-8.27,1
		c-1,0.17-2.5,0.5-4.51,1h-0.25C1324.79,420.87,1324.79,431.9,1324.96,453.94z"/>
	<path class="st4" d="M1493.3,389.56c8.18-3.34,21.88-5.01,41.09-5.01c9.35,0,17.37,1.59,24.05,4.76
		c6.68,3.17,11.52,6.81,14.53,10.9c3.01,4.09,5.3,8.77,6.89,14.03c1.58,5.26,2.46,9.19,2.63,11.77c0.16,2.59,0.16,4.8,0,6.64v91.19
		c-25.05,3.34-37.58-4.42-37.58-23.3c0-7.01,0-16.2,0-27.56c0.16-24.88-1-40.04-3.51-45.47c-2.5-5.43-10.36-8.31-23.55-8.64
		c-8.19,0-16.37,1.5-24.55,4.51v77.16c0.33,10.02-2.8,16.58-9.39,19.67c-6.6,3.09-15.99,4.3-28.18,3.63V328.43
		c3.01,2.17,6.97,3.47,11.9,3.88c4.92,0.42,9.1,0.63,12.53,0.63c3.42,0,6.47,1.8,9.14,5.39c2.67,3.59,4.01,9.48,4.01,17.66V389.56z"
		/>
	<path class="st4" d="M1624.32,370.52c-3.84-4.01-5.76-8.77-5.76-14.28c0-5.51,1.96-10.23,5.89-14.15
		c3.92-3.92,8.64-5.89,14.15-5.89c5.51,0,10.23,1.97,14.16,5.89c3.92,3.93,5.89,8.64,5.89,14.15c0,5.51-1.96,10.23-5.89,14.15
		c-3.93,3.93-8.64,5.89-14.16,5.89C1633.09,376.28,1628.33,374.36,1624.32,370.52z M1657.14,409.85c0-8.18-1.34-14.07-4.01-17.66
		c-2.67-3.59-5.72-5.39-9.14-5.39c-3.42,0-7.6-0.21-12.53-0.63c-4.93-0.41-8.89-1.71-11.9-3.88v141.54
		c12.19,0.67,21.58-0.54,28.18-3.63c6.6-3.09,9.73-9.65,9.39-19.67V409.85z"/>
	<path class="st4" d="M1820.98,432.65v91.19c-5.85,0.33-10.86,0.29-15.03-0.13c-4.18-0.42-8.14-1.38-11.9-2.88
		c-3.76-1.5-6.51-3.97-8.27-7.39c-1.75-3.42-2.55-7.72-2.38-12.9v-54.11v-0.5V433.4c-2.5-12.19-13.87-17.04-34.07-14.53
		c-10.52,1.34-16.62,2.34-18.29,3.01c0.5,2.84,0.75,6.18,0.75,10.02v68.64c0.16,5.18-0.67,9.48-2.5,12.9
		c-1.84,3.42-4.6,5.89-8.27,7.39c-3.68,1.5-7.6,2.47-11.77,2.88c-4.18,0.42-9.19,0.46-15.03,0.13v-122
		c0-10.85,17.45-16.7,52.36-17.54C1796.01,382.96,1820.81,399.08,1820.98,432.65z"/>
	<path class="st4" d="M1866.57,419.87c0-0.5-0.09-1.17-0.25-2c-0.17-0.83-0.21-2.46-0.13-4.89c0.08-2.42,0.33-4.72,0.75-6.89
		c0.42-2.17,1.25-4.63,2.51-7.39c1.25-2.76,2.92-5.09,5.01-7.01c2.09-1.92,4.92-3.55,8.52-4.89c3.59-1.33,7.81-2,12.65-2
		c1.5,0,3.84,0,7.01,0c4.34-0.16,8.81-0.16,13.4,0c4.59,0.17,9.18,0.38,13.78,0.63c4.59,0.25,9.06,0.96,13.4,2.13
		c4.34,1.17,8.47,2.59,12.4,4.26c3.92,1.67,7.52,4.05,10.77,7.14c3.26,3.09,6.1,6.64,8.52,10.65c2.42,4.01,4.3,8.94,5.64,14.78
		c1.33,5.85,2,12.44,2,19.79v1.75v1.75v2v1.75v2v2v2.25v2.5v2.51v3.01v4.01v2c0,6.85-0.75,13.07-2.25,18.66
		c-1.5,5.6-3.38,10.15-5.64,13.65c-2.25,3.51-5.05,6.6-8.39,9.27c-3.34,2.67-6.47,4.63-9.39,5.89c-2.92,1.25-6.31,2.25-10.15,3.01
		c-3.84,0.75-6.81,1.21-8.89,1.38c-2.09,0.17-4.55,0.25-7.39,0.25h-34.57c-0.5,0-1.25-0.04-2.25-0.13c-1-0.08-2.88-0.33-5.64-0.75
		c-2.76-0.42-5.39-1.04-7.89-1.88c-2.5-0.83-5.3-2.21-8.39-4.13c-3.09-1.92-5.72-4.17-7.89-6.76c-2.17-2.59-4.01-5.97-5.51-10.15
		c-1.5-4.17-2.25-8.85-2.25-14.03c0-9.18,1.17-16.91,3.51-23.17c2.34-6.26,5.89-11.11,10.65-14.53c4.76-3.42,10.06-5.8,15.91-7.14
		c5.84-1.33,12.94-2,21.29-2c14.53,0,24.43-0.96,29.69-2.88c5.26-1.92,7.89-4.89,7.89-8.89c0-5.68-5.47-9.52-16.41-11.52
		c-10.94-2-22.55-2.42-34.82-1.25C1881.48,415.78,1872.42,417.53,1866.57,419.87z M1945.99,457.7c-0.67,0.84-1.63,1.84-2.88,3.01
		c-1.25,1.17-4.05,2.72-8.39,4.63c-4.34,1.92-8.85,2.88-13.53,2.88c-8.18,0-14.82,1-19.92,3.01c-5.1,2-7.64,4.85-7.64,8.52
		c0,4.34,1.84,7.6,5.51,9.77c3.67,2.17,11.02,3.26,22.05,3.26c4.51,0,7.97-0.04,10.4-0.13c2.42-0.08,4.67-0.71,6.76-1.88
		c2.09-1.17,3.55-2.25,4.38-3.26c0.83-1,1.54-3.13,2.13-6.39c0.58-3.26,0.92-6.39,1-9.39
		C1945.94,468.72,1945.99,464.05,1945.99,457.7z"/>
</g>
</svg>
