<svg width="227" height="52" viewBox="0 0 227 52" fill="none" xmlns="http://www.w3.org/2000/svg">
<path d="M76.6453 10.0426L81.9638 20.6053L87.3217 10.0426H97.1873V26.3332H91.7871L91.9081 14.1478H90.9733L84.1935 26.3332H79.7281L72.9483 14.1478H71.9742L72.0952 26.3332H66.7373V10.0426H76.6423H76.6453Z" fill="white"/>
<path d="M118.131 23.5689H106.239L104.696 26.33H98.4453L107.984 10.0393H116.51L125.927 26.33H119.677L118.134 23.5689H118.131ZM112.773 13.8206H111.678L108.187 19.9966H116.225L112.773 13.8206V13.8206Z" fill="white"/>
<path d="M126.859 10.0423H140.091C144.232 10.0423 146.682 10.2593 147.44 10.6932C148.82 11.4652 149.225 12.5611 149.225 15.3645C149.225 17.7199 148.941 18.6554 148.048 19.3063C147.398 19.7543 146.626 19.9965 145.855 20.0389C148.614 20.3235 149.101 21.0531 149.022 24.8313V26.3329H143.583V25.4398C143.583 23.6113 143.462 23.0028 143.056 22.5971C142.609 22.1914 142.285 22.149 140.013 22.149H132.259V26.2936H126.819L126.859 10.0453V10.0423ZM140.052 18.1256C141.865 18.1256 142.894 18.0438 143.138 17.8803C143.504 17.6351 143.788 17.1083 143.788 16.0941C143.788 15.08 143.586 14.5502 143.056 14.3473C142.53 14.1445 142.609 14.1838 140.052 14.1445H132.341V18.1649L140.052 18.1256V18.1256Z" fill="white"/>
<path d="M157.346 10.124V16.0548H160.35L167.454 10.0423H175.858L165.466 18.1256L176.751 26.4117H168.428L160.35 20.1963H157.346V26.4117H151.867V10.121H157.346V10.124Z" fill="white"/>
<path d="M200.293 11.1803C201.673 12.1158 202.078 13.8203 202.078 18.4099C202.078 22.9995 201.673 24.7069 200.293 25.6818C198.914 26.6566 197.168 26.8201 189.78 26.8201C182.393 26.8201 180.526 26.6172 179.143 25.6818C177.764 24.7463 177.358 23.0418 177.358 18.2888C177.358 13.5357 177.806 12.0734 179.143 11.1379C180.484 10.2025 182.269 9.99963 189.699 9.99963C197.168 10.039 198.914 10.2449 200.293 11.1773V11.1803ZM183.324 15.2008C182.958 15.7699 182.837 16.7024 182.837 18.8579C182.837 21.0135 183.001 21.5402 183.648 22.0276C184.299 22.4757 185.312 22.5968 189.777 22.5968C194.243 22.5968 195.096 22.5151 195.786 22.0276C196.475 21.5402 196.597 20.85 196.597 18.9003C196.597 16.5843 196.433 15.6095 195.988 15.0827C195.42 14.3924 194.769 14.3107 189.738 14.3107C184.462 14.2713 183.893 14.3501 183.324 15.2038V15.2008Z" fill="white"/>
<path d="M204.068 10.0423H217.344C221.484 10.0423 223.934 10.2593 224.692 10.6932C226.072 11.4652 226.477 12.5611 226.477 15.3645C226.477 17.7199 226.193 18.6554 225.3 19.3063C224.65 19.7543 223.878 19.9965 223.107 20.0389C225.908 20.3235 226.353 21.0531 226.274 24.8313V26.3329H220.874V25.4398C220.874 23.6113 220.753 23.0028 220.348 22.5971C219.9 22.1914 219.576 22.149 217.304 22.149H209.55V26.2936H204.071V10.0453L204.068 10.0423ZM217.262 18.1256C219.049 18.1256 220.077 18.0438 220.348 17.8803C220.714 17.6351 220.998 17.1083 220.998 16.0941C220.998 15.08 220.795 14.5502 220.266 14.3473C219.74 14.1445 219.818 14.1838 217.262 14.1445H209.55V18.1649L217.262 18.1256V18.1256Z" fill="white"/>
<path d="M66.7002 32.5236V34.2553H69.5591V39.3716H71.6133V34.2553H74.4723V32.5236H66.7032H66.7002Z" fill="white"/>
<path d="M82.964 32.5236V39.3323H90.0493V37.7217H84.8548V36.6742H89.7256V35.1847H84.8548V34.2189H90.0069V32.6083H82.9609V32.5266L82.964 32.5236Z" fill="white"/>
<path d="M104.862 36.6721C104.862 37.6802 104.822 37.6802 102.687 37.6802C100.551 37.6802 100.593 37.6409 100.593 35.9062C100.593 34.898 100.675 34.456 100.874 34.2956C101.077 34.1351 101.437 34.0957 102.605 34.0957C103.047 34.0957 103.612 34.0957 103.933 34.1351C104.375 34.1745 104.538 34.2168 104.577 34.3379C104.659 34.459 104.659 34.5377 104.698 34.9434H106.671V34.6225C106.671 33.5357 106.468 33.0119 105.866 32.688C105.424 32.4851 104.819 32.4064 103.168 32.4064C99.9063 32.4064 99.1832 32.5669 98.7808 33.4146C98.6205 33.8172 98.5781 34.3803 98.5781 35.9122C98.5781 36.7175 98.5781 37.2806 98.6175 37.5652C98.6991 38.3311 98.8988 38.7338 99.3829 38.976C99.9063 39.2575 100.711 39.3786 103.168 39.3786C104.617 39.3786 105.343 39.2969 105.866 39.1364C106.55 38.8942 106.792 38.3705 106.792 37.323V36.6781H104.859L104.862 36.6721Z" fill="white"/>
<path d="M115.532 32.5236V39.3323H117.586V36.874H121.973V39.3323H124.027V32.5236H121.973V34.9395H117.586V32.5236H115.532Z" fill="white"/>
<path d="M132.961 32.5236V39.3323H134.973L134.933 34.2159H135.136L138.476 39.3323H141.898V32.5236H139.886L139.925 37.6399H139.726L136.386 32.5236H132.964H132.961Z" fill="white"/>
<path d="M155.065 32.4028C152.408 32.4028 151.803 32.4846 151.319 32.8872C150.835 33.2899 150.675 33.9741 150.675 35.8693C150.675 37.8825 150.796 38.5667 151.319 38.9724C151.843 39.375 152.405 39.4568 155.104 39.4568C157.803 39.4568 158.326 39.375 158.849 38.9724C159.373 38.5304 159.494 37.9249 159.494 35.9116C159.494 33.8984 159.373 33.2535 158.849 32.8902C158.365 32.4876 157.763 32.4059 155.065 32.4059V32.4028ZM155.065 34.1769C156.834 34.1769 157.119 34.2163 157.279 34.4978C157.439 34.74 157.482 35.1427 157.482 36.1084C157.482 36.9137 157.4 37.1953 157.2 37.4375C156.958 37.6373 156.595 37.6797 155.068 37.6797C153.54 37.6797 153.134 37.6403 152.892 37.4375C152.69 37.2346 152.611 36.9531 152.611 36.1084C152.611 35.2638 152.65 34.8187 152.771 34.5765C153.013 34.2132 153.213 34.1739 155.068 34.1739L155.065 34.1769Z" fill="white"/>
<path d="M168.306 32.5235V39.3322H174.907V37.6005H170.357V32.4841H168.303V32.5235H168.306Z" fill="white"/>
<path d="M187.792 32.4028C185.136 32.4028 184.531 32.4846 184.05 32.8872C183.566 33.2899 183.405 33.9741 183.405 35.8693C183.405 37.8825 183.526 38.5667 184.05 38.9724C184.534 39.375 185.136 39.4568 187.834 39.4568C190.533 39.4568 191.056 39.375 191.58 38.9724C192.103 38.5304 192.224 37.9249 192.224 35.9116C192.224 33.8984 192.103 33.2535 191.58 32.8902C191.056 32.4876 190.412 32.4059 187.795 32.4059L187.792 32.4028ZM187.792 34.1769C189.565 34.1769 189.846 34.2163 190.007 34.4978C190.167 34.74 190.206 35.1427 190.206 36.1084C190.206 36.9137 190.125 37.1953 189.925 37.4375C189.683 37.6373 189.32 37.6797 187.792 37.6797C186.264 37.6797 185.859 37.6403 185.617 37.4375C185.414 37.2346 185.335 36.9531 185.335 36.1084C185.335 35.2638 185.375 34.8187 185.496 34.5765C185.698 34.2132 185.859 34.1739 187.789 34.1739L187.792 34.1769Z" fill="white"/>
<path d="M204.901 35.4642V36.8326H207.436C207.436 37.3563 207.397 37.4774 207.315 37.5985C207.155 37.759 206.752 37.8013 205.1 37.8013H203.893C203.37 37.8013 203.21 37.762 203.049 37.5985C202.847 37.4381 202.768 37.0354 202.768 35.9062C202.768 34.7255 203.533 34.1351 205.064 34.1351C206.513 34.1351 206.997 34.1745 207.197 34.2956C207.318 34.3773 207.318 34.456 207.357 34.8587H209.33C209.33 33.8505 209.248 33.4479 209.006 33.127C208.564 32.6032 207.678 32.4004 205.303 32.4004C202.928 32.4004 202.042 32.5215 201.558 32.8848C200.995 33.2874 200.874 33.9323 200.874 35.8244C200.874 38.0799 200.956 38.5643 201.558 38.9669C202.12 39.3696 202.804 39.4513 204.979 39.4513C206.71 39.4513 207.397 39.4119 208.038 39.2908C208.803 39.1304 209.245 38.646 209.327 37.8407C209.366 37.5198 209.409 36.3088 209.409 35.664V35.5429H204.901V35.4611V35.4642Z" fill="white"/>
<path d="M217.381 32.5236L221.045 36.9557V39.3716H223.056V36.9557L226.56 32.5236H224.025L222.013 35.2634L219.919 32.5236H217.384H217.381Z" fill="white"/>
<path d="M66.7002 32.5236V34.2553H69.5591V39.3716H71.6133V34.2553H74.4723V32.5236H66.7032H66.7002Z" fill="white"/>
<path d="M82.964 32.5236V39.3323H90.0493V37.7217H84.8548V36.6742H89.7256V35.1847H84.8548V34.2189H90.0069V32.6083H82.9609V32.5266L82.964 32.5236Z" fill="white"/>
<path d="M104.862 36.6721C104.862 37.6802 104.822 37.6802 102.687 37.6802C100.551 37.6802 100.593 37.6409 100.593 35.9062C100.593 34.898 100.675 34.456 100.874 34.2956C101.077 34.1351 101.437 34.0957 102.605 34.0957C103.047 34.0957 103.612 34.0957 103.933 34.1351C104.375 34.1745 104.538 34.2168 104.577 34.3379C104.659 34.459 104.659 34.5377 104.698 34.9434H106.671V34.6225C106.671 33.5357 106.468 33.0119 105.866 32.688C105.424 32.4851 104.819 32.4064 103.168 32.4064C99.9063 32.4064 99.1832 32.5669 98.7808 33.4146C98.6205 33.8172 98.5781 34.3803 98.5781 35.9122C98.5781 36.7175 98.5781 37.2806 98.6175 37.5652C98.6991 38.3311 98.8988 38.7338 99.3829 38.976C99.9063 39.2575 100.711 39.3786 103.168 39.3786C104.617 39.3786 105.343 39.2969 105.866 39.1364C106.55 38.8942 106.792 38.3705 106.792 37.323V36.6781H104.859L104.862 36.6721Z" fill="white"/>
<path d="M115.532 32.5236V39.3323H117.586V36.874H121.973V39.3323H124.027V32.5236H121.973V34.9395H117.586V32.5236H115.532Z" fill="white"/>
<path d="M132.961 32.5236V39.3323H134.973L134.933 34.2159H135.136L138.476 39.3323H141.898V32.5236H139.886L139.925 37.6399H139.726L136.386 32.5236H132.964H132.961Z" fill="white"/>
<path d="M155.065 32.4028C152.408 32.4028 151.803 32.4846 151.319 32.8872C150.835 33.2899 150.675 33.9741 150.675 35.8693C150.675 37.8825 150.796 38.5667 151.319 38.9724C151.843 39.375 152.405 39.4568 155.104 39.4568C157.803 39.4568 158.326 39.375 158.849 38.9724C159.373 38.5304 159.494 37.9249 159.494 35.9116C159.494 33.8984 159.373 33.2535 158.849 32.8902C158.365 32.4876 157.763 32.4059 155.065 32.4059V32.4028ZM155.065 34.1769C156.834 34.1769 157.119 34.2163 157.279 34.4978C157.439 34.74 157.482 35.1427 157.482 36.1084C157.482 36.9137 157.4 37.1953 157.2 37.4375C156.958 37.6373 156.595 37.6797 155.068 37.6797C153.54 37.6797 153.134 37.6403 152.892 37.4375C152.69 37.2346 152.611 36.9531 152.611 36.1084C152.611 35.2638 152.65 34.8187 152.771 34.5765C153.013 34.2132 153.213 34.1739 155.068 34.1739L155.065 34.1769Z" fill="white"/>
<path d="M168.306 32.5235V39.3322H174.907V37.6005H170.357V32.4841H168.303V32.5235H168.306Z" fill="white"/>
<path d="M187.792 32.4028C185.136 32.4028 184.531 32.4846 184.05 32.8872C183.566 33.2899 183.405 33.9741 183.405 35.8693C183.405 37.8825 183.526 38.5667 184.05 38.9724C184.534 39.375 185.136 39.4568 187.834 39.4568C190.533 39.4568 191.056 39.375 191.58 38.9724C192.103 38.5304 192.224 37.9249 192.224 35.9116C192.224 33.8984 192.103 33.2535 191.58 32.8902C191.056 32.4876 190.412 32.4059 187.795 32.4059L187.792 32.4028ZM187.792 34.1769C189.565 34.1769 189.846 34.2163 190.007 34.4978C190.167 34.74 190.206 35.1427 190.206 36.1084C190.206 36.9137 190.125 37.1953 189.925 37.4375C189.683 37.6373 189.32 37.6797 187.792 37.6797C186.264 37.6797 185.859 37.6403 185.617 37.4375C185.414 37.2346 185.335 36.9531 185.335 36.1084C185.335 35.2638 185.375 34.8187 185.496 34.5765C185.698 34.2132 185.859 34.1739 187.789 34.1739L187.792 34.1769Z" fill="white"/>
<path d="M204.901 35.4642V36.8326H207.436C207.436 37.3563 207.397 37.4774 207.315 37.5985C207.155 37.759 206.752 37.8013 205.1 37.8013H203.893C203.37 37.8013 203.21 37.762 203.049 37.5985C202.847 37.4381 202.768 37.0354 202.768 35.9062C202.768 34.7255 203.533 34.1351 205.064 34.1351C206.513 34.1351 206.997 34.1745 207.197 34.2956C207.318 34.3773 207.318 34.456 207.357 34.8587H209.33C209.33 33.8505 209.248 33.4479 209.006 33.127C208.564 32.6032 207.678 32.4004 205.303 32.4004C202.928 32.4004 202.042 32.5215 201.558 32.8848C200.995 33.2874 200.874 33.9323 200.874 35.8244C200.874 38.0799 200.956 38.5643 201.558 38.9669C202.12 39.3696 202.804 39.4513 204.979 39.4513C206.71 39.4513 207.397 39.4119 208.038 39.2908C208.803 39.1304 209.245 38.646 209.327 37.8407C209.366 37.5198 209.409 36.3088 209.409 35.664V35.5429H204.901V35.4611V35.4642Z" fill="white"/>
<path d="M217.381 32.5236L221.045 36.9557V39.3716H223.056V36.9557L226.56 32.5236H224.025L222.013 35.2634L219.919 32.5236H217.384H217.381Z" fill="white"/>
<path fill-rule="evenodd" clip-rule="evenodd" d="M16.1017 51.7728L0.0263672 39.0575V10.2117H16.1017V51.7728Z" fill="url(#paint0_linear_1115_1686)"/>
<path fill-rule="evenodd" clip-rule="evenodd" d="M55.799 39.0575L39.7236 51.7728V10.2117H55.799V39.0575Z" fill="url(#paint1_linear_1115_1686)"/>
<path fill-rule="evenodd" clip-rule="evenodd" d="M21.5903 4.09652C18.4639 2.28963 14.8243 2.16831 11.7289 3.4512L0 10.227L24.5953 24.437C26.6435 25.6218 29.1688 25.6218 31.2169 24.437L44.0059 17.0468L21.5903 4.09652V4.09652Z" fill="url(#paint2_linear_1115_1686)"/>
<path fill-rule="evenodd" clip-rule="evenodd" d="M27.9074 7.7438L11.8063 17.0467L0 10.227L15.8819 0.862122L27.9074 7.7438Z" fill="url(#paint3_linear_1115_1686)"/>
<path fill-rule="evenodd" clip-rule="evenodd" d="M55.8126 10.227L55.8074 10.2244L40.7484 0.227112L27.9078 7.74378L11.8066 17.0467L27.9078 26.3496L43.8103 17.1603L55.8126 10.227Z" fill="url(#paint4_linear_1115_1686)"/>
<defs>
<linearGradient id="paint0_linear_1115_1686" x1="8.06403" y1="45.3119" x2="8.06403" y2="16.0248" gradientUnits="userSpaceOnUse">
<stop stop-color="#47A8F3"/>
<stop offset="1" stop-color="#2E4C74"/>
</linearGradient>
<linearGradient id="paint1_linear_1115_1686" x1="47.7613" y1="45.3119" x2="47.7613" y2="16.0248" gradientUnits="userSpaceOnUse">
<stop stop-color="#47A8F3"/>
<stop offset="1" stop-color="#2E4C74"/>
</linearGradient>
<linearGradient id="paint2_linear_1115_1686" x1="0" y1="13.9596" x2="44.0085" y2="13.9596" gradientUnits="userSpaceOnUse">
<stop stop-color="#47A8F3"/>
<stop offset="1" stop-color="#2E4C74"/>
</linearGradient>
<linearGradient id="paint3_linear_1115_1686" x1="9.60096" y1="16.1913" x2="18.4438" y2="1.90587" gradientUnits="userSpaceOnUse">
<stop stop-color="#47A8F3"/>
<stop offset="1" stop-color="#2E4C74"/>
</linearGradient>
<linearGradient id="paint4_linear_1115_1686" x1="11.8066" y1="13.2884" x2="55.8126" y2="13.2884" gradientUnits="userSpaceOnUse">
<stop stop-color="#47A8F3"/>
<stop offset="1" stop-color="#2E4C74"/>
</linearGradient>
</defs>
</svg>
