<?xml version="1.0" encoding="UTF-8"?>
<svg id="Layer_1" data-name="Layer 1" xmlns="http://www.w3.org/2000/svg" viewBox="0 0 80 80">
  <defs>
    <style>
      .cls-1 {
        fill: none;
        stroke: #fdb400;
        stroke-miterlimit: 10;
        stroke-width: .75px;
      }
    </style>
  </defs>
  <path class="cls-1" d="m34.59,66l1.28,1.95c.08.13.2.18.33.18h8.16c.14,0,.25-.06.32-.16l1.3-2c.91-1.42,2.48-2.27,4.19-2.27h22.54V22.13c0-2.56-1.4-4.79-3.47-5.97-.49.89-1.03,1.8-1.62,2.75-.94,1.49-1.94,2.96-2.99,4.35.74.7,1.2,1.71,1.2,2.82l-.02,27.14c-.01,2.15-1.75,3.9-3.91,3.9h-17.97s-7.55-12.1-7.55-12.1c-.59-.94-1.95-.94-2.54,0l-2.15,3.44c-.37.59-1.24.59-1.61-.01l-4.24-6.94c-.59-.95-1.97-.95-2.55,0l-8.47,13.83c-.4-.62-.63-1.35-.63-2.14v-27.17c0-2.16,1.74-3.9,3.9-3.9l31.49.02c.83-2.19,1.9-4.56,3.15-6.9H14.16c-3.8,0-6.88,3.08-6.88,6.88v41.57h23.11c1.71,0,3.28.85,4.2,2.3h0Z"/>
  <path class="cls-1" d="m74.15,66.01h-23.97c-.91,0-1.77.46-2.26,1.24l-1.29,1.97c-.5.77-1.35,1.22-2.26,1.22h-8.16c-.91,0-1.77-.45-2.26-1.22l-1.29-1.97c-.5-.77-1.35-1.24-2.26-1.24H5.85c-1.32,0-2.2,1.35-1.7,2.56l3.29,7.71c.29.68.96,1.12,1.69,1.12h61.75c.73,0,1.4-.44,1.69-1.12l3.29-7.71c.51-1.21-.38-2.56-1.7-2.56h0Z"/>
  <path class="cls-1" d="m44.26,33.54c-.12,2.56-1.12,4.14-2.08,5.09-.72.69-.37,1.9.59,2.17,3.19.85,8.74,1.2,12.4-4.83,1.19-1.97.77-3.99-.4-5.57,1.7-1.25,3.68-3.23,5.67-5.56l-7.5-4.71c-1.24,2.77-2.15,5.4-2.55,7.47-2.9-.61-5.89.8-6.12,5.94h0Z"/>
  <path class="cls-1" d="m27.43,32.6c0,2.44,1.97,4.42,4.42,4.42s4.42-1.97,4.42-4.42-1.97-4.42-4.42-4.42-4.42,1.97-4.42,4.42Z"/>
  <path class="cls-1" d="m65.68,17.69c4.99-7.94,5.63-13.23,3.27-14.72-2.37-1.48-6.85,1.38-11.83,9.33-1.17,1.84-2.25,3.8-3.2,5.73l7.98,5.02c1.33-1.7,2.62-3.52,3.79-5.36h0Z"/>
</svg>