<?xml version="1.0" encoding="UTF-8"?>
<svg id="Layer_1" data-name="Layer 1" xmlns="http://www.w3.org/2000/svg" viewBox="0 0 80 80">
  <defs>
    <style>
      .cls-1 {
        fill: #fdb400;
      }
    </style>
  </defs>
  <path class="cls-1" d="m1.17,78.85h-.32c-.17,0-.31.14-.31.31s.14.31.31.31h.33c.17,0,.31-.14.31-.31,0-.17-.14-.31-.31-.31Z"/>
  <path class="cls-1" d="m75.71,78.85h-14.86c1.78-.91,3.01-2.77,3.01-4.91v-14.33h.46c.17,0,.31-.14.31-.31s-.14-.31-.31-.31h-.46v-16.75c1.69-1.33,2.77-3.38,2.77-5.69s-1.08-4.38-2.77-5.7V6.05c0-3.04-2.47-5.51-5.51-5.51H21.65c-3.04,0-5.51,2.47-5.51,5.51v23.67c-.67,1.33-1.04,2.82-1.04,4.39s.38,3.03,1.04,4.34v35.48c0,2.14,1.23,3.99,3.01,4.91H4.23c-.17,0-.31.14-.31.31s.14.31.31.31h71.48c.17,0,.31-.14.31-.31s-.14-.31-.31-.31h0Zm-25.08-61.83c-1.84,0-3.75.54-5.37,1.59-2.4-3.58-6.37-5.7-10.69-5.7-6.78,0-12.37,5.24-12.84,11.96,0,.02,0,.04,0,.06-.95.32-1.83.77-2.61,1.33V6.06c0-1.4,1.14-2.53,2.53-2.53h6.26c.15,1.42,1.35,2.52,2.81,2.52h20.57c1.46,0,2.66-1.11,2.81-2.52h4.24c1.4,0,2.53,1.14,2.53,2.53v23.42c-.25-.05-.49-.09-.75-.12.22-.82.33-1.66.33-2.52,0-5.42-4.41-9.82-9.82-9.82h0ZM16.75,6.05c0-2.7,2.2-4.9,4.9-4.9h36.69c2.7,0,4.9,2.2,4.9,4.9v24.37c-.54-.34-1.13-.61-1.76-.8V6.06c0-1.73-1.41-3.14-3.14-3.14h-4.53c-.17,0-.31.14-.31.31,0,1.22-.99,2.21-2.21,2.21h-20.57c-1.22,0-2.21-.99-2.21-2.21,0-.17-.14-.31-.31-.31h-6.55c-1.73,0-3.14,1.41-3.14,3.14v20.67c-.68.57-1.26,1.24-1.76,1.97V6.05Zm-.05,23.93s.03-.04.03-.07c.56-1.07,1.32-2.02,2.26-2.79.02-.01.03-.02.05-.04.78-.64,1.69-1.15,2.68-1.51,0,.06,0,.12,0,.18,0,1.77.35,3.47,1.03,5.07.05.12.16.19.28.19.04,0,.08,0,.12-.02.16-.07.23-.25.16-.4-.65-1.52-.98-3.14-.98-4.83,0-6.73,5.45-12.25,12.26-12.25,4.11,0,7.89,2.03,10.18,5.44-.98.74-1.84,1.66-2.51,2.76-.09.14-.04.33.1.42.05.03.1.04.16.04.1,0,.2-.05.26-.15,4.68-7.65,17.07-4.66,17.07,4.8,0,.85-.12,1.68-.35,2.49-1.98-.03-3.75.71-5.08,1.96-.12.12-.13.31-.01.43.12.12.31.13.43.01,1.81-1.7,4.31-2.19,6.55-1.49,2.69.85,4.64,3.37,4.64,6.33,0,0,0,0,0,.01,0,3.65-2.98,6.62-6.64,6.62H25.59s0,0,0,0,0,0,0,0h-.78c-5.01,0-9.08-4.07-9.08-9.08,0-1.48.35-2.89.99-4.14h0Zm44.18,29.13c-.06-.07-.14-.11-.23-.11h-1.84c-.17,0-.31.14-.31.31s.14.31.31.31h1.84c.09,0,.18-.05.23-.11v14.44c0,1.4-1.14,2.53-2.53,2.53H21.65c-1.4,0-2.53-1.14-2.53-2.53v-13.83h.18c.17,0,.31-.14.31-.31s-.14-.31-.31-.31h-.18v-17.54c1.6,1.16,3.56,1.85,5.68,1.85h.48v1.3c0,.17.14.31.31.31s.31-.14.31-.31v-1.3h13.79v1.53c0,.17.14.31.31.31s.31-.14.31-.31v-1.53h19.08c.51,0,1.01-.06,1.5-.16v15.46Zm-44.12,14.83v-34.42c.49.73,1.09,1.39,1.76,1.96v18.01h-1.04c-.17,0-.31.14-.31.31s.14.31.31.31h1.04v13.83c0,1.73,1.41,3.14,3.14,3.14h36.69c1.73,0,3.14-1.41,3.14-3.14v-30.44c.63-.19,1.21-.47,1.76-.81v16.31h-.76c-.17,0-.31.14-.31.31s.14.31.31.31h.76v14.33c0,2.7-2.2,4.9-4.9,4.9H21.65c-2.7,0-4.9-2.2-4.9-4.9h0Z"/>
  <path class="cls-1" d="m79.15,78.85h-.38c-.17,0-.31.14-.31.31s.14.31.31.31h.38c.17,0,.31-.14.31-.31s-.14-.31-.31-.31Z"/>
  <path class="cls-1" d="m36.22,3.52h7.55c.17,0,.31-.14.31-.31s-.14-.31-.31-.31h-7.55c-.17,0-.31.14-.31.31s.14.31.31.31Z"/>
  <path class="cls-1" d="m45.41,3.52h.64c.17,0,.31-.14.31-.31s-.14-.31-.31-.31h-.64c-.17,0-.31.14-.31.31s.14.31.31.31Z"/>
  <path class="cls-1" d="m25.51,26.04l1.1.32c.13.39.28.75.46,1.1l-.54,1c-.25.44-.16,1.01.2,1.38l.87.86c.37.36.95.44,1.4.19l1-.55c.34.18.7.32,1.1.45l.33,1.1c.15.49.6.83,1.11.83h1.26c.51-.01.97-.36,1.11-.85l.31-1.1c.3-.1.6-.22.9-.36.07-.03.13-.06.19-.1l1.01.54c.46.24,1.02.16,1.39-.21l.86-.88c.36-.37.44-.93.19-1.39l-.56-1c.04-.08.08-.15.11-.23.13-.27.25-.57.34-.88l1.09-.33c.49-.15.83-.6.83-1.13v-1.22c-.01-.52-.36-.98-.86-1.12l-1.12-.33-.45-1.07.54-1.02c.25-.45.17-1.02-.2-1.39l-.87-.86c-.36-.36-.93-.44-1.38-.2l-1.01.55c-.35-.18-.71-.33-1.1-.45l-.33-1.09c-.15-.49-.61-.84-1.13-.84h-1.23c-.53.01-.97.36-1.11.86l-.31,1.09c-.39.13-.76.28-1.1.46l-1.01-.54c-.46-.24-1.03-.15-1.39.21l-.86.87c-.37.38-.44.94-.19,1.39l.55,1c-.18.36-.33.73-.44,1.11l-1.09.33c-.5.15-.84.61-.83,1.12v1.23c0,.52.35.97.85,1.11h0Zm-.24-2.35c0-.24.16-.46.39-.53l1.25-.37c.1-.03.18-.11.21-.21.12-.44.3-.88.52-1.3.05-.09.05-.2,0-.29l-.63-1.15c-.12-.22-.08-.48.09-.66l.86-.87c.17-.18.45-.22.66-.1l1.15.62c.09.05.2.05.29,0,.39-.22.82-.4,1.29-.54.1-.03.18-.11.21-.21l.36-1.25c.07-.24.28-.41.53-.41h1.22c.25,0,.47.16.54.39l.37,1.25c.03.1.11.18.21.21.46.13.89.31,1.29.53.09.05.2.05.29,0l1.15-.63c.21-.12.48-.08.66.09l.87.86c.18.18.22.44.1.66l-.61,1.15c-.04.08-.05.18-.01.26l.56,1.34c.04.08.11.15.2.17l1.26.37c.24.07.4.29.4.53h0s.01,1.22.01,1.22c0,.25-.17.47-.4.54l-1.25.37c-.1.03-.18.11-.21.21-.1.34-.21.65-.36.95-.05.12-.11.23-.17.35-.05.09-.05.2,0,.29l.63,1.14c.12.22.08.49-.09.67l-.86.87c-.17.17-.44.22-.67.1l-1.15-.62c-.09-.05-.2-.05-.29,0-.11.06-.21.11-.31.16-.32.15-.65.28-.97.38-.1.03-.18.11-.21.21l-.35,1.26c-.07.23-.29.4-.53.4h-1.24c-.24,0-.46-.15-.53-.39l-.38-1.25c-.03-.1-.11-.18-.21-.21-.48-.14-.9-.31-1.28-.52-.09-.05-.2-.05-.3,0l-1.15.63c-.22.12-.49.08-.67-.09l-.87-.86c-.17-.18-.22-.44-.1-.65l.62-1.15c.05-.09.05-.2,0-.29-.22-.4-.4-.82-.54-1.29-.03-.1-.11-.17-.21-.2l-1.26-.37c-.24-.07-.4-.28-.41-.53v-1.23Z"/>
  <path class="cls-1" d="m30.03,24.96s0,.01,0,.02c.3,1.43,1.56,2.44,3.02,2.44.77,0,1.59-.3,2.2-.92,0,0,0,0,0,0,1.22-1.24,1.13-3.2-.03-4.36-.75-.74-1.9-1.1-3.08-.74-1.57.49-2.42,2.03-2.11,3.56h0Zm2.29-2.98c.94-.29,1.85-.01,2.46.59.97.96.98,2.53.03,3.5h0c-.96.97-2.53.98-3.5.03-.37-.37-.61-.83-.69-1.33-.22-1.25.51-2.41,1.7-2.78h0Z"/>
  <path class="cls-1" d="m41.58,31.09c-.24.19-.46.4-.66.62l-.87-.13c-.44-.06-.88.18-1.05.57l-.42.89c-.19.4-.09.87.25,1.17l.67.58c-.04.3-.05.61-.03.9l-.71.53c-.35.26-.49.72-.34,1.15l.34.92c.15.41.57.68,1.01.65l.88-.06c.18.23.38.45.61.66l-.12.88c-.07.44.17.88.57,1.05l.9.42c.4.18.88.07,1.16-.26l.58-.67c.23.03.49.04.76.04h.1s.03,0,.04,0l.53.71c.2.26.5.4.81.4.11,0,.23-.02.34-.06l.93-.34c.41-.16.67-.56.65-1.01l-.06-.88c.24-.19.46-.39.67-.62l.88.13c.43.06.85-.16,1.05-.57l.41-.9c.19-.41.09-.88-.25-1.17l-.68-.6.03-.88.72-.54c.36-.26.5-.72.35-1.15l-.34-.92c-.16-.42-.57-.69-1-.65l-.9.06c-.19-.24-.39-.46-.62-.66l.13-.87c.06-.44-.18-.87-.58-1.06l-.9-.41c-.41-.18-.88-.08-1.17.26l-.58.67c-.3-.04-.61-.05-.91-.04l-.53-.71c-.27-.35-.74-.49-1.15-.34l-.92.34c-.42.15-.68.57-.65,1l.06.89Zm.5.38c.08-.06.13-.16.12-.26l-.07-1.05c-.01-.17.09-.33.25-.39l.93-.34c.16-.06.34,0,.44.13l.63.84c.06.08.15.13.27.12.36-.03.73-.01,1.1.05.1.02.21-.02.28-.1l.68-.79c.11-.13.3-.17.46-.1l.89.41c.16.07.25.24.23.41l-.16,1.03c-.02.1.02.21.1.28.29.24.53.51.75.81.06.08.16.13.27.12l1.06-.07c.17-.02.32.09.39.25l.34.91c.06.17,0,.35-.13.45l-.84.62c-.07.06-.12.14-.12.23l-.04,1.17c0,.09.04.18.1.24l.8.69c.13.11.17.3.09.46l-.41.89c-.08.16-.24.24-.41.22l-1.04-.15c-.1-.01-.21.02-.28.11-.23.28-.51.53-.81.75-.08.06-.13.16-.12.27l.07,1.04c.01.18-.09.34-.25.4l-.92.34c-.16.06-.35,0-.45-.13l-.66-.88c-.06-.06-.14-.09-.22-.09-.01,0-.02,0-.04,0-.06,0-.11,0-.17.01h-.08c-.29,0-.57-.01-.83-.05-.11-.01-.21.02-.28.1l-.68.8c-.11.12-.3.17-.45.1l-.91-.42c-.15-.07-.24-.23-.22-.41l.15-1.05c.01-.1-.02-.21-.1-.28-.28-.24-.53-.51-.74-.8-.06-.09-.17-.13-.27-.13l-1.05.07c-.19,0-.34-.09-.39-.25l-.34-.92c-.06-.16,0-.35.13-.45l.84-.63c.08-.06.13-.16.12-.27-.03-.36-.01-.73.04-1.1.01-.1-.02-.21-.1-.27l-.79-.69c-.13-.12-.18-.3-.1-.46l.42-.9c.07-.15.23-.24.4-.22l1.03.15c.1.01.21-.02.27-.1.24-.27.51-.52.82-.76h0Z"/>
  <path class="cls-1" d="m45.82,37.86c1.31-.49,1.98-1.96,1.49-3.26-.28-.74-.94-1.38-1.79-1.58-1.18-.28-2.41.35-2.9,1.41-.28.62-.31,1.31-.07,1.94.48,1.28,1.93,1.99,3.27,1.5h0Zm-.51-4.26c.7.14,1.21.63,1.43,1.21.37.99-.14,2.11-1.13,2.48-1,.37-2.11-.14-2.48-1.14-.52-1.39.69-2.85,2.18-2.55h0Z"/>
  <path class="cls-1" d="m79.46,62.07v-5.53c0-.85-.69-1.53-1.53-1.53h-8.7c-.85,0-1.53.69-1.53,1.53v2.46h-1.53c-.17,0-.31.14-.31.31s.14.31.31.31h1.53v2.46c0,.85.69,1.53,1.53,1.53h8.7c.85,0,1.53-.69,1.53-1.53h0Zm-.61,0c0,.51-.41.92-.92.92h-8.7c-.51,0-.92-.41-.92-.92v-5.53c0-.51.41-.92.92-.92h8.7c.51,0,.92.41.92.92v5.53Z"/>
  <path class="cls-1" d="m75.19,58.42l-1.96-1.41c-.33-.24-.77-.27-1.14-.09-.37.19-.6.56-.6.97v2.83c0,.41.23.79.6.97.37.19.81.15,1.14-.09l1.96-1.41c.6-.44.61-1.33,0-1.77h0Zm-.36,1.28l-1.96,1.41c-.32.23-.76,0-.76-.39v-2.83c0-.18.1-.35.26-.43.16-.08.35-.07.5.04l1.96,1.41c.13.09.2.23.2.39,0,.16-.07.3-.2.39h0Z"/>
  <path class="cls-1" d="m54.02,46.43c.17,0,.31-.14.31-.31v-1.84c0-.17-.14-.31-.31-.31s-.31.14-.31.31v1.84c0,.17.14.31.31.31Z"/>
  <path class="cls-1" d="m54.02,53.77c.17,0,.31-.14.31-.31v-1.84c0-.17-.14-.31-.31-.31s-.31.14-.31.31v1.84c0,.17.14.31.31.31Z"/>
  <path class="cls-1" d="m54.32,55.92v-.61c0-.17-.14-.31-.31-.31s-.31.14-.31.31v.61c0,.45.08.89.24,1.31.05.12.16.2.29.2.04,0,.07,0,.11-.02.16-.06.24-.24.18-.39-.13-.35-.2-.72-.2-1.09h0Z"/>
  <path class="cls-1" d="m54.02,50.1c.17,0,.31-.14.31-.31v-1.84c0-.17-.14-.31-.31-.31s-.31.14-.31.31v1.84c0,.17.14.31.31.31Z"/>
  <path class="cls-1" d="m57.02,58.98c-.55-.07-1.08-.29-1.52-.64-.13-.11-.33-.08-.43.05-.1.13-.08.32.05.43.53.42,1.16.68,1.82.77.18.02.32-.1.34-.27.02-.17-.1-.32-.26-.34h0Z"/>
  <path class="cls-1" d="m25.59,53.98c-.17,0-.31.14-.31.31v1.84c0,.17.14.31.31.31s.31-.14.31-.31v-1.84c0-.17-.14-.31-.31-.31Z"/>
  <path class="cls-1" d="m25.59,46.64c-.17,0-.31.14-.31.31v1.84c0,.17.14.31.31.31s.31-.14.31-.31v-1.84c0-.17-.14-.31-.31-.31Z"/>
  <path class="cls-1" d="m25.59,50.31c-.17,0-.31.14-.31.31v1.84c0,.17.14.31.31.31s.31-.14.31-.31v-1.84c0-.17-.14-.31-.31-.31Z"/>
  <path class="cls-1" d="m25.59,57.66c-.17,0-.31.14-.31.31,0,.52-.26,1-.69,1.28-.14.09-.18.28-.09.42.06.09.16.14.26.14.06,0,.12-.02.17-.05.61-.4.97-1.07.97-1.81,0-.17-.14-.3-.31-.3h0Z"/>
  <path class="cls-1" d="m22.98,59.5h-1.84c-.17,0-.31.14-.31.31s.14.31.31.31h1.84c.17,0,.31-.14.31-.31s-.14-.31-.31-.31Z"/>
  <path class="cls-1" d="m.83,64.44s.01,0,.02,0h12.95c.14,0,.3-.12.3-.31v-4.03h1.53c.17,0,.31-.14.31-.31s-.14-.31-.31-.31h-1.53v-4.03c0-.18-.17-.31-.31-.31H.85c-.14,0-.31.13-.31.31v8.67c0,.17.15.29.29.3h0Zm12.66-.98l-4.2-3.66,4.2-3.66v7.33Zm-4.67-3.26l4.16,3.62H1.67l4.16-3.62,1.3,1.13c.12.1.29.1.4,0l1.3-1.13Zm-7.67,3.26v-7.33l4.2,3.66-4.2,3.66Zm11.83-7.7l-5.66,4.94-5.66-4.94h11.32Z"/>
  <path class="cls-1" d="m39.99,60.33c.17,0,.31-.14.31-.31v-1.84c0-.17-.14-.31-.31-.31s-.31.14-.31.31v1.84c0,.17.14.31.31.31Z"/>
  <path class="cls-1" d="m39.99,56.66c.17,0,.31-.14.31-.31v-1.84c0-.17-.14-.31-.31-.31s-.31.14-.31.31v1.84c0,.17.14.31.31.31Z"/>
  <path class="cls-1" d="m39.99,49.32c.17,0,.31-.14.31-.31v-1.84c0-.17-.14-.31-.31-.31s-.31.14-.31.31v1.84c0,.17.14.31.31.31Z"/>
  <path class="cls-1" d="m39.99,52.99c.17,0,.31-.14.31-.31v-1.84c0-.17-.14-.31-.31-.31s-.31.14-.31.31v1.84c0,.17.14.31.31.31Z"/>
  <path class="cls-1" d="m44.58,68.35c-.89,0-1.67.42-2.18,1.07-.54-.34-2.79-1.74-4.47-2.8.18-.37.28-.77.28-1.21s-.11-.85-.29-1.22c5.23-3.27,3.66-2.29,4.47-2.79,0,0,0,0,0,0,.51.65,1.3,1.07,2.19,1.07,1.54,0,2.8-1.25,2.8-2.8s-1.25-2.8-2.8-2.8-2.8,1.26-2.8,2.8c0,.44.11.84.29,1.21l-1.77,1.1v-.13c0-.17-.14-.31-.31-.31s-.31.14-.31.31v.51l-2.09,1.31s-.02-.02-.04-.04c-.51-.62-1.28-1.03-2.15-1.03-1.62,0-2.8,1.36-2.8,2.8,0,1.54,1.25,2.8,2.8,2.8.73,0,1.4-.29,1.89-.75h0s0,0,0,0c.08-.07.14-.15.21-.23.03-.03.06-.06.08-.09l4.46,2.79c-.18.37-.29.78-.29,1.22,0,1.54,1.26,2.8,2.8,2.8s2.8-1.25,2.8-2.8c0-1.55-1.25-2.8-2.8-2.8h0Zm0-10.86c1.2,0,2.18.98,2.18,2.19s-.98,2.18-2.18,2.18-2.19-.98-2.19-2.18c0-1.21.98-2.19,2.19-2.19Zm-9.17,10.11c-1.21,0-2.19-.98-2.19-2.18s.98-2.19,2.19-2.19,2.18.98,2.18,2.19-.99,2.18-2.18,2.18Zm9.17,5.74c-1.21,0-2.19-.98-2.19-2.18s.98-2.19,2.19-2.19,2.18.98,2.18,2.19c0,1.2-.98,2.18-2.18,2.18Z"/>
</svg>