<?xml version="1.0" encoding="UTF-8"?>
<svg id="Layer_1" data-name="Layer 1" xmlns="http://www.w3.org/2000/svg" viewBox="0 0 80 80">
  <defs>
    <style>
      .cls-1 {
        fill: #fdb400;
        fill-rule: evenodd;
      }
    </style>
  </defs>
  <path class="cls-1" d="m73.8,23.21s-.07-.11-.15-.17l-16.84-4.96-3.68-12.46c-.07-.22-.27-.33-.43-.33-.03,0-.06,0-.1.01l-.04.02-26.56,7.83c-.09.05-.14.12-.16.17-.03.06-.07.17-.04.3,0,0,.02.04.02.04l9.51,32.27-13.77-6.89c-.08-.04-.16-.07-.25-.07-.08,0-.15.02-.21.04l-14.73,7.36c-.14.08-.22.23-.22.38v20.29c0,.14.04.32.25.42l14.63,7.16s.08.04.15.06c0,0,.05.01.07.01h.1s.11-.04.11-.04l.14-.07,14.58-7.14c.22-.1.23-.34.23-.42v-14.72l26.17,7.72.05.02s.09,0,.09,0c.16,0,.36-.1.43-.33l10.69-36.25c.03-.13-.01-.24-.04-.3Zm-52.98,50.34l-13.74-6.74v-19.33l1.44.71,12.3,6.15v19.21Zm.45-20.11l-13.66-6.69,13.66-6.84,13.66,6.84-13.66,6.69Zm14.24,13.35l-13.76,6.75v-19.2l13.76-6.88v19.33ZM26.8,13.83l25.6-7.52,3.38,11.47-8.85-2.61h0c-.13,0-.28.06-.37.2l-9.65,32.73L26.8,13.83Zm35.64,45.26l-25.61-7.54.44-1.5.05-.09s.04-.11.05-.17v-.1s9.88-33.49,9.88-33.49l25.61,7.54-10.42,35.35Z"/>
  <path class="cls-1" d="m52.41,44.81c.09.18.27.24.4.24.07,0,.14-.02.2-.04,2.62-1.26,4.95-2.41,6.85-3.69,2.28-1.54,3.63-3.1,4.12-4.76.31-1.06.15-2.18-.45-3.16-.58-.97-1.52-1.68-2.66-2.01-.54-.16-1.02-.24-1.48-.24s-.85.07-1.29.23c-.24.08-.47.18-.77.36l-.9.5-.48-.91c-.16-.31-.3-.53-.46-.73-.53-.69-1.23-1.15-2.21-1.45l-.18-.06c-.41-.11-.84-.17-1.26-.17-.69,0-1.37.15-1.98.45-1,.47-1.72,1.28-2.08,2.38l-.03.12c-.45,1.65-.15,3.65.9,6.14.89,2.09,2.2,4.3,3.73,6.82Zm-3.75-12.69v-.07s.06-.15.06-.15c.25-.74.8-1.35,1.57-1.74.48-.23,1-.35,1.56-.35.33,0,.67.04,1.09.15l.15.05c.76.25,1.33.62,1.75,1.16.38.53.67,1.25.87,2.21.05.24.25.35.49.35h.01c.11-.03.21-.09.31-.21.7-.7,1.29-1.12,1.89-1.33.31-.11.65-.17,1-.17.38,0,.77.06,1.22.19.94.28,1.71.86,2.15,1.63.47.76.6,1.65.35,2.43-.43,1.46-1.65,2.86-3.75,4.27-1.65,1.11-3.65,2.12-5.57,3.06l-.82.4-.47-.78c-1.04-1.72-2.22-3.73-3.02-5.59-.96-2.27-1.24-4.07-.86-5.51Z"/>
  <path class="cls-1" d="m11.1,56.84c.88,0,1.59-.78,1.59-1.74s-.71-1.74-1.59-1.74-1.59.78-1.59,1.74.71,1.74,1.59,1.74Z"/>
  <path class="cls-1" d="m31.43,55.97c.88,0,1.59-.78,1.59-1.74s-.71-1.74-1.59-1.74-1.59.78-1.59,1.74.71,1.74,1.59,1.74Z"/>
  <path class="cls-1" d="m14.32,62.52c.88,0,1.59-.78,1.59-1.74s-.71-1.74-1.59-1.74-1.59.78-1.59,1.74.71,1.74,1.59,1.74Z"/>
  <path class="cls-1" d="m15.32,66.73c0,.96.71,1.74,1.59,1.74s1.59-.78,1.59-1.74-.71-1.74-1.59-1.74-1.59.78-1.59,1.74Z"/>
  <path class="cls-1" d="m25.63,67.58c.88,0,1.59-.78,1.59-1.74s-.71-1.74-1.59-1.74-1.59.78-1.59,1.74.71,1.74,1.59,1.74Z"/>
  <path class="cls-1" d="m25.63,58.86c.88,0,1.59-.78,1.59-1.74s-.71-1.74-1.59-1.74-1.59.78-1.59,1.74.71,1.74,1.59,1.74Z"/>
  <path class="cls-1" d="m31.43,64.69c.88,0,1.59-.78,1.59-1.74s-.71-1.74-1.59-1.74-1.59.78-1.59,1.74.71,1.74,1.59,1.74Z"/>
</svg>