<?xml version="1.0" encoding="UTF-8"?>
<svg id="Layer_1" data-name="Layer 1" xmlns="http://www.w3.org/2000/svg" viewBox="0 0 80 80">
  <defs>
    <style>
      .cls-1 {
        fill: #fdb400;
      }
    </style>
  </defs>
  <path class="cls-1" d="m73.58,16.5c-.71-.73-1.65-1.13-2.65-1.14h-9.23v-7.94c0-.78-.3-1.51-.83-2.06-.53-.54-1.27-.86-2.02-.86H8.18c-.75,0-1.49.31-2.02.85-.54.55-.83,1.29-.83,2.07v38.62c0,.78.3,1.51.83,2.06.53.54,1.27.86,2.02.86h1.86v16.3l-3.51,9.57c-.06.15-.04.33.06.46.09.14.25.22.41.22h40.07c.16,0,.31-.08.41-.22.09-.14.11-.31.06-.47l-3.5-9.57v-16.3h3.73v11.82c0,1.03.38,2,1.09,2.73.7.73,1.65,1.13,2.65,1.14h19.44c1,0,1.95-.41,2.65-1.14.71-.73,1.09-1.7,1.09-2.73V19.22c0-1.03-.38-2-1.09-2.73Zm-27.23,57.99H7.71l3.17-8.64h32.32l3.17,8.64Zm-35.33-9.65v-20.71h32.01v20.71H11.03Zm36.73-16.9h-3.73v-4.32c0-.13-.05-.26-.14-.36s-.22-.15-.35-.15H10.53c-.27,0-.49.23-.49.51v4.32h-1.86c-1.03,0-1.86-.86-1.86-1.91V7.42c0-1.05.84-1.91,1.86-1.91h50.68c.5,0,.96.2,1.32.56.35.36.54.84.54,1.35v7.94h-9.23c-1,0-1.94.41-2.65,1.14-.71.73-1.09,1.7-1.09,2.73v28.71Zm25.93,12.83c0,.76-.27,1.47-.79,2.01s-1.21.84-1.96.85h-19.45c-.74,0-1.43-.31-1.95-.85-.52-.54-.8-1.26-.79-2.01v-.96h24.94v.95Zm0-1.96h-24.94V21.2h24.94v37.61Zm0-38.62h-24.94v-.95c0-.76.27-1.47.79-2.01s1.21-.84,1.95-.85h19.46c.74,0,1.43.31,1.95.85.52.54.8,1.26.79,2.01v.96Z"/>
  <path class="cls-1" d="m33.4,52.23c.07-.21,0-.43-.17-.56l-4.17-3.2-.59.81,2.98,2.29h-10.8v1.01h12.28c.21,0,.4-.14.47-.35Z"/>
  <path class="cls-1" d="m20.67,56.74c-.07.21,0,.43.17.56l4.17,3.2.59-.81-2.98-2.29h10.8v-1.01h-12.28c-.21,0-.4.14-.47.35Z"/>
  <path class="cls-1" d="m67.47,37.74c.07-.21,0-.43-.17-.56l-4.17-3.2-.59.81,2.98,2.29h-10.8v1.01h12.28c.21,0,.4-.14.47-.35Z"/>
  <path class="cls-1" d="m54.75,42.25c-.07.21,0,.43.17.56l4.17,3.2.59-.81-2.98-2.29h10.8v-1.01h-12.28c-.21,0-.4.14-.47.35Z"/>
  <path class="cls-1" d="m39.88,24.47c.07-.21,0-.43-.17-.56l-4.17-3.2-.59.81,2.98,2.29h-10.8v1.01h12.28c.21,0,.4-.14.47-.35Z"/>
  <path class="cls-1" d="m27.16,28.98c-.07.21,0,.43.17.57l4.17,3.2.59-.81-2.98-2.29h10.8v-1.01h-12.28c-.21,0-.4.14-.47.34Z"/>
  <path class="cls-1" d="m32.83,9.32H10.54c-.27,0-.49.23-.49.51v16.19h.99v-15.69h21.8v-1.01Z"/>
</svg>