<?xml version="1.0" encoding="UTF-8"?>
<svg id="Layer_1" data-name="Layer 1" xmlns="http://www.w3.org/2000/svg" viewBox="0 0 80 80">
  <defs>
    <style>
      .cls-1 {
        fill: #fdb400;
      }
    </style>
  </defs>
  <path class="cls-1" d="m71.32,60.97l-11.49-11.49.26-.35c2.2-2.9,1.92-7.02-.65-9.6l-3.26-3.26.05-.26c.26-1.46.4-2.96.4-4.45,0-13.81-11.24-25.05-25.05-25.05S6.52,17.76,6.52,31.57s11.24,25.05,25.05,25.05c1.49,0,2.98-.13,4.45-.4l.26-.05,3.26,3.26c1.38,1.38,3.22,2.14,5.18,2.14,1.59,0,3.16-.53,4.42-1.49l.35-.26,11.49,11.49c1.4,1.4,3.25,2.17,5.22,2.17s3.79-.76,5.16-2.13c1.38-1.38,2.14-3.22,2.13-5.18,0-1.96-.77-3.81-2.16-5.2Zm-39.74-5.46c-13.19,0-23.93-10.73-23.93-23.93S18.38,7.65,31.57,7.65s23.93,10.73,23.93,23.93-10.73,23.93-23.93,23.93Zm17.52,3.14c-1.17,1.17-2.72,1.81-4.38,1.81s-3.21-.64-4.38-1.81l-2.74-2.74.82-.23c8.29-2.35,14.91-8.97,17.26-17.26l.23-.82,2.74,2.74c2.41,2.41,2.41,6.34,0,8.76l-9.56,9.56Zm21.46,11.91c-1.16,1.16-2.71,1.8-4.37,1.8s-3.24-.65-4.43-1.83l-11.48-11.48,8.76-8.76,11.48,11.48c1.18,1.18,1.83,2.74,1.83,4.4,0,1.66-.63,3.22-1.8,4.39Z"/>
  <path class="cls-1" d="m48.3,31.41l-2.78-.63-.04-.35c-.12-1.06-.35-2.1-.71-3.11l-.12-.33,2.22-1.77c.2-.16.27-.45.16-.68-.57-1.18-1.26-2.29-2.07-3.3-.8-1-1.73-1.93-2.75-2.75-.1-.08-.22-.12-.35-.12s-.25.04-.35.12l-2.23,1.78-.3-.19c-.9-.57-1.87-1.04-2.87-1.38l-.33-.12v-2.85c0-.26-.18-.49-.44-.55-1.27-.29-2.57-.44-3.87-.44s-2.6.15-3.87.44c-.26.06-.44.28-.44.55v2.85l-.33.12c-1.01.35-1.97.82-2.87,1.38l-.3.19-2.23-1.78c-.1-.08-.22-.12-.35-.12s-.25.04-.35.12c-1.03.82-1.95,1.74-2.75,2.75-.81,1.02-1.51,2.13-2.07,3.3-.11.23-.05.52.16.68l2.23,1.77-.12.33c-.35,1-.59,2.05-.71,3.11l-.04.35-2.77.63c-.26.06-.44.29-.44.55,0,1.31.15,2.61.43,3.87.29,1.26.72,2.5,1.29,3.67.09.19.29.32.51.32.04,0,.08,0,.13-.01l2.78-.63.19.3c.56.9,1.23,1.74,1.99,2.49l.25.25-1.24,2.57c-.11.23-.05.52.16.68,1.02.82,2.13,1.51,3.29,2.07,1.16.56,2.4.99,3.67,1.28.04,0,.08.01.13.01.22,0,.42-.12.51-.32l1.24-2.57.35.04c.53.06,1.07.09,1.59.09s1.06-.03,1.59-.09l.35-.04,1.24,2.57c.09.19.29.32.5.32.04,0,.09,0,.12-.01,1.27-.29,2.51-.72,3.68-1.28,1.16-.56,2.27-1.26,3.29-2.07.2-.16.27-.45.15-.68l-1.24-2.57.25-.25c.75-.75,1.42-1.59,1.99-2.49l.19-.3,2.78.63s.08.01.12.01c.21,0,.41-.13.51-.32.57-1.18,1-2.42,1.29-3.67.28-1.28.42-2.59.42-3.88,0-.26-.18-.49-.44-.55Zm-.7,1.41c-.05.94-.18,1.86-.39,2.76-.21.9-.49,1.79-.85,2.64l-.16.39-2.75-.63s-.08-.01-.12-.01c-.2,0-.39.11-.49.29-.7,1.27-1.62,2.42-2.71,3.4-.19.17-.24.44-.13.66l1.22,2.54-.34.25c-.75.54-1.56,1.02-2.39,1.42-.83.4-1.7.73-2.6.98l-.41.12-1.22-2.54c-.09-.19-.29-.32-.5-.32h-.1c-.73.13-1.46.19-2.18.19s-1.44-.06-2.27-.19c-.21,0-.41.12-.51.32l-1.22,2.54-.4-.11c-.89-.25-1.77-.58-2.6-.98-.83-.4-1.63-.88-2.39-1.42l-.34-.25,1.22-2.54c.11-.23.06-.5-.13-.66-1.09-.98-2.01-2.12-2.71-3.4-.1-.18-.29-.29-.49-.29-.04,0-.08,0-.13.01l-2.75.63-.16-.39c-.36-.85-.64-1.74-.85-2.64-.2-.88-.33-1.81-.38-2.75l-.02-.42,2.75-.63c.25-.06.42-.26.44-.52.08-1.47.41-2.89.96-4.24.1-.23.03-.5-.17-.66l-2.2-1.75.2-.37c.45-.83.97-1.6,1.54-2.31.57-.72,1.22-1.39,1.91-2.01l.31-.28,2.21,1.76c.1.08.22.12.35.12.12,0,.23-.04.32-.1,1.19-.85,2.51-1.49,3.92-1.89.24-.07.41-.29.41-.54v-2.82s.41-.07.41-.07c.91-.16,1.84-.24,2.77-.24s1.85.08,2.76.24l.41.07v2.82c0,.25.17.47.41.54,1.41.41,2.72,1.04,3.92,1.89.1.07.21.1.32.1.13,0,.25-.04.35-.12l2.21-1.76.31.28c.69.61,1.34,1.29,1.91,2.01.57.71,1.08,1.49,1.54,2.31l.2.37-2.2,1.76c-.19.16-.26.42-.17.65.56,1.35.88,2.77.96,4.24.01.25.19.46.44.51l2.75.63-.02.42Z"/>
  <path class="cls-1" d="m31.51,24.04c-4.12,0-7.46,3.35-7.46,7.46s3.35,7.46,7.46,7.46,7.46-3.35,7.46-7.46-3.35-7.46-7.46-7.46Zm0,13.8c-3.5,0-6.34-2.84-6.34-6.34s2.84-6.34,6.34-6.34,6.34,2.84,6.34,6.34-2.84,6.34-6.34,6.34Z"/>
  <path class="cls-1" d="m55.96,14.55h2.06v6.87c0,.31.25.56.56.56s.56-.25.56-.56v-7.43c0-.31-.25-.56-.56-.56h-2.52l7.47-5.46,7.63,5.46h-2.5c-.31,0-.56.25-.56.56v39.28c0,.31.25.56.56.56s.56-.25.56-.56V14.55h2.03c.48,0,.89-.31,1.04-.76s-.02-.95-.41-1.22l-7.41-5.3c-.28-.2-.6-.3-.94-.3s-.68.11-.96.31l-7.26,5.3c-.38.28-.54.77-.4,1.22.15.45.57.75,1.04.75Z"/>
  <path class="cls-1" d="m24.11,60.87l-7.41-5.3c-.28-.2-.6-.3-.94-.3s-.68.11-.96.31l-7.26,5.29c-.38.28-.54.77-.4,1.22.15.45.57.75,1.04.75h2.06v10.06c0,.31.25.56.56.56s.56-.25.56-.56v-10.62c0-.31-.25-.56-.56-.56h-2.52l7.47-5.46,7.63,5.46h-2.5c-.31,0-.56.25-.56.56v10.62c0,.31.25.56.56.56s.56-.25.56-.56v-10.06h2.03c.48,0,.89-.31,1.04-.76.15-.45-.02-.95-.41-1.22Z"/>
  <path class="cls-1" d="m44.29,67.77l-7.41-5.3c-.28-.2-.6-.3-.94-.3s-.68.11-.96.31l-7.26,5.3c-.38.28-.54.77-.4,1.22.15.45.57.75,1.04.75h2.06v3.15c0,.31.25.56.56.56s.56-.25.56-.56v-3.72c0-.31-.25-.56-.56-.56h-2.52l7.47-5.46,7.63,5.46h-2.49c-.31,0-.56.25-.56.56v3.72c0,.31.25.56.56.56s.56-.25.56-.56v-3.15h2.03c.48,0,.89-.31,1.04-.76.15-.45-.02-.95-.41-1.22Z"/>
</svg>