<?xml version="1.0" encoding="UTF-8"?>
<svg id="Layer_1" data-name="Layer 1" xmlns="http://www.w3.org/2000/svg" viewBox="0 0 80 80">
  <defs>
    <style>
      .cls-1 {
        fill: none;
        stroke: #ffb000;
        stroke-miterlimit: 10;
        stroke-width: .65px;
      }
    </style>
  </defs>
  <path class="cls-1" d="m48.08,9.91c.29-.72.61-1.35.93-1.89-1.17.39-2.23,1.04-3.09,1.89h2.16Z"/>
  <path class="cls-1" d="m47.35,12.22h-3.08c-.34.72-.58,1.5-.7,2.31h3.42c.06-.82.19-1.59.36-2.31Z"/>
  <path class="cls-1" d="m48.1,26.11v3.47h2.31v-3.47c0-.64-.52-1.16-1.16-1.16s-1.16.52-1.16,1.16Z"/>
  <path class="cls-1" d="m15.69,26.11v-1.16c0-2.8,2-5.14,4.64-5.67,0-.09,0-.18,0-.28v-2.15h2.31v2.15c0,1.16.58,2.24,1.55,2.89l.24.16c.51.34,1.09.53,1.7.57-.73-.97-1.17-2.16-1.17-3.45v-2.31h2.31v2.31c0,1.91,1.56,3.47,3.47,3.47h.03c-.73-.97-1.19-2.16-1.19-3.47v-2.31h2.31v2.31c0,1.91,1.56,3.47,3.47,3.47h1.16v3.47c.68,0,1.33.16,1.91.43.26-1.34.4-2.71.4-4.09,0-5.64-4.59-10.23-10.23-10.23h-4.27c-2.75,0-5.23,1.53-6.46,3.99l-.17.35-1,.5c-2.06,1.03-3.33,3.1-3.33,5.39,0,1.37.14,2.74.4,4.09.58-.27,1.23-.43,1.91-.43Z"/>
  <path class="cls-1" d="m47.35,19.17c-.18-.76-.3-1.53-.36-2.31h-3.43c.12.81.35,1.59.7,2.31h3.1Z"/>
  <path class="cls-1" d="m36.53,28.43v4.63c1.28,0,2.31-1.04,2.31-2.31s-1.04-2.31-2.31-2.31Z"/>
  <path class="cls-1" d="m56.16,14.54h3.42c-.12-.82-.36-1.6-.7-2.31h-3.08c.17.72.3,1.49.36,2.31Z"/>
  <path class="cls-1" d="m57.23,9.91c-.86-.85-1.92-1.5-3.09-1.89.32.55.64,1.17.93,1.89h2.16Z"/>
  <path class="cls-1" d="m52.52,9.91c-.32-.65-.66-1.19-.95-1.61-.29.42-.62.96-.95,1.61h1.89Z"/>
  <path class="cls-1" d="m53.41,19.17c.2-.71.34-1.48.42-2.31h-4.52c.07.78.22,1.56.43,2.31h3.67Z"/>
  <path class="cls-1" d="m53.41,12.22h-3.68c-.2.71-.34,1.48-.42,2.31h4.52c-.07-.83-.22-1.61-.42-2.31Z"/>
  <path class="cls-1" d="m52.52,21.48h0s-6.59,0-6.59,0c.58.57,1.25,1.05,2,1.42.41-.17.86-.27,1.33-.27.8,0,1.53.28,2.11.74.33-.45.75-1.09,1.15-1.9Z"/>
  <path class="cls-1" d="m48.1,33.06h0v-.68c0-.39-.55-.61-.82-.34l-1.12,1.12c-.24.24-.38.56-.38.91,0,.43.21.83.57,1.06l2.99,2-.1.72c-.53,3.7-2.99,6.75-6.25,8.19.66,1.23,1.37,2.79,1.91,4.55,4.59-1.93,7.83-6.46,7.83-11.75v-2.31h-1.16c-1.91,0-3.47-1.56-3.47-3.47Z"/>
  <path class="cls-1" d="m38.76,46.94h0s-1.3,0-1.3,0c-.69,0-1.39-.07-2.07-.2l-4.21-.84-4.54,5.67h13.35c.92,0,1.83-.11,2.7-.29-.55-1.79-1.29-3.35-1.95-4.53-.65.12-1.31.19-1.99.19Z"/>
  <path class="cls-1" d="m17.21,74.72h17.77c1.44,0,2.68-.97,3.07-2.31H14.14c.39,1.35,1.63,2.31,3.07,2.31Z"/>
  <path class="cls-1" d="m36.78,53.89h0s-21.38,0-21.38,0c-1.77,0-3.2,1.44-3.2,3.2,0,.13,0,.27.02.4l1.58,12.61h24.58l1.58-12.61c.02-.13.02-.27.02-.4,0-1.76-1.44-3.2-3.2-3.2Zm-10.67,8.1c-1.28,0-2.31-1.04-2.31-2.31s1.04-2.31,2.31-2.31,2.31,1.04,2.31,2.31-1.04,2.31-2.31,2.31Z"/>
  <path class="cls-1" d="m55.8,19.17h3.08c.34-.72.58-1.5.7-2.31h-3.42c-.06.82-.19,1.59-.36,2.31Z"/>
  <path class="cls-1" d="m54.15,23.37c1.17-.39,2.23-1.04,3.09-1.89h-2.16c-.29.72-.61,1.35-.93,1.89Z"/>
  <path class="cls-1" d="m53.89,31.9h-3.51c.03.16.04.32.04.48v.68c0,.64.52,1.16,1.16,1.16h2.31c.64,0,1.16-.52,1.16-1.16s-.52-1.16-1.16-1.16Z"/>
  <path class="cls-1" d="m15.69,33.06v-4.63c-1.28,0-2.31,1.04-2.31,2.31s1.04,2.31,2.31,2.31Z"/>
  <path class="cls-1" d="m34.21,34.21h0v-9.26h-7.86c-1.15,0-2.26-.34-3.21-.97l-.24-.16c-.87-.58-1.56-1.38-2-2.29-1.64.28-2.89,1.71-2.89,3.42v9.26c0,3.19,2.6,5.79,5.79,5.79h4.63c3.19,0,5.79-2.6,5.79-5.79Zm-13.89-6.94c0-.64.52-1.16,1.16-1.16s1.16.52,1.16,1.16-.52,1.16-1.16,1.16-1.16-.52-1.16-1.16Zm5.79,9.26c-2.56,0-4.63-2.07-4.63-4.63h9.26c0,2.56-2.07,4.63-4.63,4.63Zm4.63-8.1c-.64,0-1.16-.52-1.16-1.16s.52-1.16,1.16-1.16,1.16.52,1.16,1.16-.52,1.16-1.16,1.16Z"/>
  <path class="cls-1" d="m15.4,51.57h0s10.13,0,10.13,0l-4.58-5.75-.55.03c-8.48.55-15.13,7.63-15.13,16.13,0,3.19,2.6,5.79,5.79,5.79h.12l-.58-4.63h-3.01v-2.31h2.72l-.38-3.06c-.03-.23-.04-.45-.04-.68,0-3.04,2.47-5.51,5.52-5.51Z"/>
  <path class="cls-1" d="m23.79,42.31c-.18,0-.36-.01-.54-.03l-.52,2.07,3.35,4.21,3.33-4.17-.69-2.09c-.1,0-.21.01-.31.01h-4.63Z"/>
  <path class="cls-1" d="m68.94,35.37h0c-.65,0-1.24.19-1.76.5l-4.02-3.35v-4.71l-3.47-2.31v-3.26c-.66.82-1.44,1.53-2.31,2.12v2.38l3.47,2.31v4.55l4.86,4.05c-.14.38-.23.78-.23,1.2,0,1.91,1.56,3.47,3.47,3.47s3.47-1.56,3.47-3.47-1.56-3.47-3.47-3.47Z"/>
  <path class="cls-1" d="m71.25,23.8h0c-.14,0-.28.03-.42.04l-2.34-4.67h-7.11c-.29.82-.67,1.6-1.15,2.31h6.83l1.69,3.38c-.6.62-.98,1.47-.98,2.4,0,1.91,1.56,3.47,3.47,3.47s3.47-1.56,3.47-3.47-1.56-3.47-3.47-3.47Z"/>
  <path class="cls-1" d="m66.18,16.85l2.34-4.67c.14.02.28.04.42.04,1.91,0,3.47-1.56,3.47-3.47s-1.56-3.47-3.47-3.47-3.47,1.56-3.47,3.47c0,.93.38,1.78.98,2.4l-1.69,3.38h-2.82c.04.38.07.77.07,1.16s-.03.78-.07,1.16h4.26Z"/>
</svg>