<?xml version="1.0" encoding="UTF-8"?>
<svg id="Layer_1" data-name="Layer 1" xmlns="http://www.w3.org/2000/svg" viewBox="0 0 80 80">
  <defs>
    <style>
      .cls-1 {
        fill: #fdb400;
      }
    </style>
  </defs>
  <path class="cls-1" d="m7.09,26.29c0,1.2.94,2.14,2.14,2.14s2.14-.94,2.14-2.14-.94-2.14-2.14-2.14-2.14.94-2.14,2.14Zm2.14,1.37c-.77,0-1.37-.6-1.37-1.37s.6-1.37,1.37-1.37c.77,0,1.37.6,1.37,1.37s-.6,1.37-1.37,1.37Z"/>
  <path class="cls-1" d="m56.27,28.89H16.36v11.67h39.91v-11.67Zm-.37,11.3H16.73v-10.93h39.17v10.93Z"/>
  <path class="cls-1" d="m16.36,50.31h10.55v-7.9h-10.55v7.9Zm.37-7.53h9.73v7.16h-9.73v-7.16Z"/>
  <rect class="cls-1" x="29.8" y="42.87" width="26.13" height=".48"/>
  <rect class="cls-1" x="29.8" y="44.97" width="26.13" height=".48"/>
  <rect class="cls-1" x="29.8" y="47.06" width="26.13" height=".48"/>
  <rect class="cls-1" x="29.8" y="49.25" width="13.01" height=".48"/>
  <rect class="cls-1" x="25.44" y="65.43" width="21.94" height=".99"/>
  <path class="cls-1" d="m4.75,22.24h63.3v9.33h1.14v-9.13c0-2.3-1.87-4.17-4.16-4.17H7.69c-2.3,0-4.16,1.87-4.16,4.17v32.52c0,2.3,1.87,4.17,4.16,4.17h20.84l-.34,4.96h1.14l.43-4.96h13.29l.43,4.96h1.14l-.43-4.96h13.62v-4.73H4.75V22.24Z"/>
  <path class="cls-1" d="m71.79,32.74h-7.87c-2.67,0-4.85,2.18-4.85,4.85v24.05c0,2.67,2.18,4.85,4.85,4.85h7.87c2.67,0,4.85-2.18,4.85-4.85v-24.05c0-2.63-2.22-4.85-4.85-4.85Zm-5.39,2.08h2.82c.37,0,.71.35.71.71s-.35.71-.71.71h-2.82c-.37,0-.71-.35-.71-.71,0-.35.25-.71.71-.71Zm1.8,29.58h-.6c-.71,0-1.31-.6-1.31-1.31h0c0-.71.6-1.31,1.31-1.31h.57s.1,0,.15,0c.57,0,1.2.54,1.2,1.32,0,.71-.6,1.31-1.31,1.31Zm7.82-3.85h-16.4v-22.82h16.4v22.82Z"/>
  <path class="cls-1" d="m74.93,42.07h-14.32v5.33h14.32v-5.33Zm-.37,4.96h-13.67v-4.68h13.67v4.68Z"/>
  <path class="cls-1" d="m67.31,48.14h-6.79v5.33h6.79v-5.33Zm-.28,5.05h-6.05v-4.68h6.05v4.68Z"/>
  <path class="cls-1" d="m68.14,48.14v5.33h6.79v-5.33h-6.79Zm6.42,5.05h-6.05v-4.68h6.05v4.68Z"/>
  <path class="cls-1" d="m67.68,41.15c.75,0,1.34-.59,1.34-1.34s-.71-1.34-1.34-1.34-1.34.57-1.34,1.34c0,.36.14.7.39.95s.59.39.95.39Zm0-2.31c.54,0,.97.44.97.97s-.44.97-.97.97-.97-.44-.97-.97c0-.58.39-.97.97-.97Z"/>
  <rect class="cls-1" x="60.61" y="54.65" width="14.32" height=".37"/>
  <rect class="cls-1" x="60.61" y="56.1" width="14.32" height=".37"/>
  <rect class="cls-1" x="60.61" y="57.47" width="14.32" height=".37"/>
  <rect class="cls-1" x="60.61" y="58.84" width="8.24" height=".37"/>
</svg>